<?xml version="1.0" encoding="UTF-8" standalone="no"?>
<!DOCTYPE svg PUBLIC "-//W3C//DTD SVG 1.1//EN"
 "http://www.w3.org/Graphics/SVG/1.1/DTD/svg11.dtd">
<!-- Generated by graphviz version 2.40.1 (20161225.0304)
 -->
<!-- Title: dependencies Pages: 1 -->
<svg width="1020pt" height="284pt"
 viewBox="0.00 0.00 1020.00 284.00" xmlns="http://www.w3.org/2000/svg" xmlns:xlink="http://www.w3.org/1999/xlink">
<g id="graph0" class="graph" transform="scale(1 1) rotate(0) translate(4 280)">
<title>dependencies</title>
<polygon fill="#ffffff" stroke="transparent" points="-4,4 -4,-280 1016,-280 1016,4 -4,4"/>
<text text-anchor="start" x="485.0091" y="-42.4" font-family="sans-serif" font-weight="bold" font-size="14.00" fill="#000000">Legend</text>
<polygon fill="#ffffb3" stroke="transparent" points="272,-10 272,-30 292,-30 292,-10 272,-10"/>
<text text-anchor="start" x="295.629" y="-15.4" font-family="sans-serif" font-size="14.00" fill="#000000"> &#160;Declarations</text>
<polygon fill="#8dd3c7" stroke="transparent" points="385,-10 385,-30 405,-30 405,-10 385,-10"/>
<text text-anchor="start" x="408.7251" y="-15.4" font-family="sans-serif" font-size="14.00" fill="#000000"> &#160;Module</text>
<polygon fill="#80b1d3" stroke="transparent" points="471,-10 471,-30 491,-30 491,-10 471,-10"/>
<text text-anchor="start" x="494.7812" y="-15.4" font-family="sans-serif" font-size="14.00" fill="#000000"> &#160;Bootstrap</text>
<polygon fill="#fdb462" stroke="transparent" points="568,-10 568,-30 588,-30 588,-10 568,-10"/>
<text text-anchor="start" x="591.6732" y="-15.4" font-family="sans-serif" font-size="14.00" fill="#000000"> &#160;Providers</text>
<polygon fill="#fb8072" stroke="transparent" points="664,-10 664,-30 684,-30 684,-10 664,-10"/>
<text text-anchor="start" x="687.7258" y="-15.4" font-family="sans-serif" font-size="14.00" fill="#000000"> &#160;Exports</text>
<g id="clust1" class="cluster">
<title>cluster_LoginModule</title>
<polygon fill="none" stroke="#000000" stroke-dasharray="1,5" points="8,-70 8,-268 1004,-268 1004,-70 8,-70"/>
</g>
<g id="clust2" class="cluster">
<title>cluster_LoginModule_declarations</title>
<polygon fill="none" stroke="#000000" points="838,-78 838,-130 996,-130 996,-78 838,-78"/>
</g>
<g id="clust4" class="cluster">
<title>cluster_LoginModule_imports</title>
<polygon fill="none" stroke="#000000" points="16,-78 16,-130 830,-130 830,-78 16,-78"/>
</g>
<g id="clust5" class="cluster">
<title>cluster_LoginModule_exports</title>
<polygon fill="none" stroke="#000000" points="428,-208 428,-260 590,-260 590,-208 428,-208"/>
</g>
<!-- LoginCardComponent -->
<g id="node1" class="node">
<title>LoginCardComponent</title>
<polygon fill="#ffffb3" stroke="#000000" points="987.9874,-122 846.0126,-122 846.0126,-86 987.9874,-86 987.9874,-122"/>
<text text-anchor="middle" x="917" y="-99.8" font-family="Times,serif" font-size="14.00" fill="#000000">LoginCardComponent</text>
</g>
<!-- LoginModule -->
<g id="node2" class="node">
<title>LoginModule</title>
<polygon fill="#8dd3c7" stroke="#000000" points="555.493,-187 552.493,-191 531.493,-191 528.493,-187 462.507,-187 462.507,-151 555.493,-151 555.493,-187"/>
<text text-anchor="middle" x="509" y="-164.8" font-family="Times,serif" font-size="14.00" fill="#000000">LoginModule</text>
</g>
<!-- LoginCardComponent&#45;&gt;LoginModule -->
<g id="edge1" class="edge">
<title>LoginCardComponent&#45;&gt;LoginModule</title>
<path fill="none" stroke="#000000" d="M917,-122.2921C917,-144.2057 917,-178 917,-178 917,-178 565.8028,-178 565.8028,-178"/>
<polygon fill="#000000" stroke="#000000" points="565.8028,-174.5001 555.8028,-178 565.8028,-181.5001 565.8028,-174.5001"/>
</g>
<!-- LoginCardComponent  -->
<g id="node9" class="node">
<title>LoginCardComponent </title>
<polygon fill="#fb8072" stroke="#000000" points="581.9882,-252 436.0118,-252 436.0118,-216 581.9882,-216 581.9882,-252"/>
<text text-anchor="middle" x="509" y="-229.8" font-family="Times,serif" font-size="14.00" fill="#000000">LoginCardComponent </text>
</g>
<!-- LoginModule&#45;&gt;LoginCardComponent  -->
<g id="edge8" class="edge">
<title>LoginModule&#45;&gt;LoginCardComponent </title>
<path fill="none" stroke="#000000" stroke-dasharray="5,2" d="M509,-187.1061C509,-187.1061 509,-205.991 509,-205.991"/>
<polygon fill="#000000" stroke="#000000" points="505.5001,-205.9909 509,-215.991 512.5001,-205.991 505.5001,-205.9909"/>
</g>
<!-- CommonModule -->
<g id="node3" class="node">
<title>CommonModule</title>
<polygon fill="#8dd3c7" stroke="#000000" points="821.6681,-122 818.6681,-126 797.6681,-126 794.6681,-122 710.3319,-122 710.3319,-86 821.6681,-86 821.6681,-122"/>
<text text-anchor="middle" x="766" y="-99.8" font-family="Times,serif" font-size="14.00" fill="#000000">CommonModule</text>
</g>
<!-- CommonModule&#45;&gt;LoginModule -->
<g id="edge2" class="edge">
<title>CommonModule&#45;&gt;LoginModule</title>
<path fill="none" stroke="#000000" d="M766,-122.1061C766,-141.3391 766,-169 766,-169 766,-169 565.5408,-169 565.5408,-169"/>
<polygon fill="#000000" stroke="#000000" points="565.5408,-165.5001 555.5408,-169 565.5407,-172.5001 565.5408,-165.5001"/>
</g>
<!-- MdCardModule -->
<g id="node4" class="node">
<title>MdCardModule</title>
<polygon fill="#8dd3c7" stroke="#000000" points="692.2064,-122 689.2064,-126 668.2064,-126 665.2064,-122 585.7936,-122 585.7936,-86 692.2064,-86 692.2064,-122"/>
<text text-anchor="middle" x="639" y="-99.8" font-family="Times,serif" font-size="14.00" fill="#000000">MdCardModule</text>
</g>
<!-- MdCardModule&#45;&gt;LoginModule -->
<g id="edge3" class="edge">
<title>MdCardModule&#45;&gt;LoginModule</title>
<path fill="none" stroke="#000000" d="M639,-122.027C639,-138.3976 639,-160 639,-160 639,-160 565.5658,-160 565.5658,-160"/>
<polygon fill="#000000" stroke="#000000" points="565.5658,-156.5001 555.5658,-160 565.5658,-163.5001 565.5658,-156.5001"/>
</g>
<!-- MdButtonModule -->
<g id="node5" class="node">
<title>MdButtonModule</title>
<polygon fill="#8dd3c7" stroke="#000000" points="567.6123,-122 564.6123,-126 543.6123,-126 540.6123,-122 450.3877,-122 450.3877,-86 567.6123,-86 567.6123,-122"/>
<text text-anchor="middle" x="509" y="-99.8" font-family="Times,serif" font-size="14.00" fill="#000000">MdButtonModule</text>
</g>
<!-- MdButtonModule&#45;&gt;LoginModule -->
<g id="edge4" class="edge">
<title>MdButtonModule&#45;&gt;LoginModule</title>
<path fill="none" stroke="#000000" d="M509,-122.1061C509,-122.1061 509,-140.991 509,-140.991"/>
<polygon fill="#000000" stroke="#000000" points="505.5001,-140.9909 509,-150.991 512.5001,-140.991 505.5001,-140.9909"/>
</g>
<!-- MdSelectModule -->
<g id="node6" class="node">
<title>MdSelectModule</title>
<polygon fill="#8dd3c7" stroke="#000000" points="432.7022,-122 429.7022,-126 408.7022,-126 405.7022,-122 319.2978,-122 319.2978,-86 432.7022,-86 432.7022,-122"/>
<text text-anchor="middle" x="376" y="-99.8" font-family="Times,serif" font-size="14.00" fill="#000000">MdSelectModule</text>
</g>
<!-- MdSelectModule&#45;&gt;LoginModule -->
<g id="edge5" class="edge">
<title>MdSelectModule&#45;&gt;LoginModule</title>
<path fill="none" stroke="#000000" d="M376,-122.027C376,-138.3976 376,-160 376,-160 376,-160 452.4831,-160 452.4831,-160"/>
<polygon fill="#000000" stroke="#000000" points="452.4831,-163.5001 462.4831,-160 452.483,-156.5001 452.4831,-163.5001"/>
</g>
<!-- MainModule -->
<g id="node7" class="node">
<title>MainModule</title>
<polygon fill="#8dd3c7" stroke="#000000" points="301.5997,-122 298.5997,-126 277.5997,-126 274.5997,-122 212.4003,-122 212.4003,-86 301.5997,-86 301.5997,-122"/>
<text text-anchor="middle" x="257" y="-99.8" font-family="Times,serif" font-size="14.00" fill="#000000">MainModule</text>
</g>
<!-- MainModule&#45;&gt;LoginModule -->
<g id="edge6" class="edge">
<title>MainModule&#45;&gt;LoginModule</title>
<path fill="none" stroke="#000000" d="M257,-122.1061C257,-141.3391 257,-169 257,-169 257,-169 452.4856,-169 452.4856,-169"/>
<polygon fill="#000000" stroke="#000000" points="452.4857,-172.5001 462.4856,-169 452.4856,-165.5001 452.4857,-172.5001"/>
</g>
<!-- MdProgressSpinnerModule -->
<g id="node8" class="node">
<title>MdProgressSpinnerModule</title>
<polygon fill="#8dd3c7" stroke="#000000" points="194.2506,-122 191.2506,-126 170.2506,-126 167.2506,-122 23.7494,-122 23.7494,-86 194.2506,-86 194.2506,-122"/>
<text text-anchor="middle" x="109" y="-99.8" font-family="Times,serif" font-size="14.00" fill="#000000">MdProgressSpinnerModule</text>
</g>
<!-- MdProgressSpinnerModule&#45;&gt;LoginModule -->
<g id="edge7" class="edge">
<title>MdProgressSpinnerModule&#45;&gt;LoginModule</title>
<path fill="none" stroke="#000000" d="M109,-122.2921C109,-144.2057 109,-178 109,-178 109,-178 452.3321,-178 452.3321,-178"/>
<polygon fill="#000000" stroke="#000000" points="452.3321,-181.5001 462.3321,-178 452.332,-174.5001 452.3321,-181.5001"/>
</g>
</g>
</svg>
