<?xml version="1.0" encoding="UTF-8" standalone="no"?>
<!DOCTYPE svg PUBLIC "-//W3C//DTD SVG 1.1//EN"
 "http://www.w3.org/Graphics/SVG/1.1/DTD/svg11.dtd">
<!-- Generated by graphviz version 2.40.1 (20161225.0304)
 -->
<!-- Title: dependencies Pages: 1 -->
<svg width="1254pt" height="284pt"
 viewBox="0.00 0.00 1254.00 284.00" xmlns="http://www.w3.org/2000/svg" xmlns:xlink="http://www.w3.org/1999/xlink">
<g id="graph0" class="graph" transform="scale(1 1) rotate(0) translate(4 280)">
<title>dependencies</title>
<polygon fill="#ffffff" stroke="transparent" points="-4,4 -4,-280 1250,-280 1250,4 -4,4"/>
<text text-anchor="start" x="602.0091" y="-42.4" font-family="sans-serif" font-weight="bold" font-size="14.00" fill="#000000">Legend</text>
<polygon fill="#ffffb3" stroke="transparent" points="389,-10 389,-30 409,-30 409,-10 389,-10"/>
<text text-anchor="start" x="412.629" y="-15.4" font-family="sans-serif" font-size="14.00" fill="#000000"> &#160;Declarations</text>
<polygon fill="#8dd3c7" stroke="transparent" points="502,-10 502,-30 522,-30 522,-10 502,-10"/>
<text text-anchor="start" x="525.7251" y="-15.4" font-family="sans-serif" font-size="14.00" fill="#000000"> &#160;Module</text>
<polygon fill="#80b1d3" stroke="transparent" points="588,-10 588,-30 608,-30 608,-10 588,-10"/>
<text text-anchor="start" x="611.7812" y="-15.4" font-family="sans-serif" font-size="14.00" fill="#000000"> &#160;Bootstrap</text>
<polygon fill="#fdb462" stroke="transparent" points="685,-10 685,-30 705,-30 705,-10 685,-10"/>
<text text-anchor="start" x="708.6732" y="-15.4" font-family="sans-serif" font-size="14.00" fill="#000000"> &#160;Providers</text>
<polygon fill="#fb8072" stroke="transparent" points="781,-10 781,-30 801,-30 801,-10 781,-10"/>
<text text-anchor="start" x="804.7258" y="-15.4" font-family="sans-serif" font-size="14.00" fill="#000000"> &#160;Exports</text>
<g id="clust1" class="cluster">
<title>cluster_AppModule</title>
<polygon fill="none" stroke="#000000" stroke-dasharray="1,5" points="8,-70 8,-268 1238,-268 1238,-70 8,-70"/>
</g>
<g id="clust2" class="cluster">
<title>cluster_AppModule_declarations</title>
<polygon fill="none" stroke="#000000" points="1108,-78 1108,-130 1230,-130 1230,-78 1108,-78"/>
</g>
<g id="clust4" class="cluster">
<title>cluster_AppModule_imports</title>
<polygon fill="none" stroke="#000000" points="154,-78 154,-130 1100,-130 1100,-78 154,-78"/>
</g>
<g id="clust6" class="cluster">
<title>cluster_AppModule_bootstrap</title>
<polygon fill="none" stroke="#000000" points="590,-208 590,-260 714,-260 714,-208 590,-208"/>
</g>
<g id="clust7" class="cluster">
<title>cluster_AppModule_providers</title>
<polygon fill="none" stroke="#000000" points="16,-78 16,-130 146,-130 146,-78 16,-78"/>
</g>
<!-- AppComponent -->
<g id="node1" class="node">
<title>AppComponent</title>
<polygon fill="#ffffb3" stroke="#000000" points="1221.9399,-122 1116.0601,-122 1116.0601,-86 1221.9399,-86 1221.9399,-122"/>
<text text-anchor="middle" x="1169" y="-99.8" font-family="Times,serif" font-size="14.00" fill="#000000">AppComponent</text>
</g>
<!-- AppModule -->
<g id="node2" class="node">
<title>AppModule</title>
<polygon fill="#8dd3c7" stroke="#000000" points="693.6571,-187 690.6571,-191 669.6571,-191 666.6571,-187 610.3429,-187 610.3429,-151 693.6571,-151 693.6571,-187"/>
<text text-anchor="middle" x="652" y="-164.8" font-family="Times,serif" font-size="14.00" fill="#000000">AppModule</text>
</g>
<!-- AppComponent&#45;&gt;AppModule -->
<g id="edge1" class="edge">
<title>AppComponent&#45;&gt;AppModule</title>
<path fill="none" stroke="#000000" d="M1169,-122.0109C1169,-144.4852 1169,-180 1169,-180 1169,-180 703.8703,-180 703.8703,-180"/>
<polygon fill="#000000" stroke="#000000" points="703.8704,-176.5001 693.8703,-180 703.8703,-183.5001 703.8704,-176.5001"/>
</g>
<!-- AppComponent  -->
<g id="node11" class="node">
<title>AppComponent </title>
<polygon fill="#80b1d3" stroke="#000000" points="706.439,-252 597.561,-252 597.561,-216 706.439,-216 706.439,-252"/>
<text text-anchor="middle" x="652" y="-229.8" font-family="Times,serif" font-size="14.00" fill="#000000">AppComponent </text>
</g>
<!-- AppModule&#45;&gt;AppComponent  -->
<g id="edge10" class="edge">
<title>AppModule&#45;&gt;AppComponent </title>
<path fill="none" stroke="#000000" stroke-dasharray="1,5" d="M652,-187.1061C652,-187.1061 652,-205.991 652,-205.991"/>
<polygon fill="#000000" stroke="#000000" points="648.5001,-205.9909 652,-215.991 655.5001,-205.991 648.5001,-205.9909"/>
</g>
<!-- BrowserModule -->
<g id="node3" class="node">
<title>BrowserModule</title>
<polygon fill="#8dd3c7" stroke="#000000" points="1092.4734,-122 1089.4734,-126 1068.4734,-126 1065.4734,-122 985.5266,-122 985.5266,-86 1092.4734,-86 1092.4734,-122"/>
<text text-anchor="middle" x="1039" y="-99.8" font-family="Times,serif" font-size="14.00" fill="#000000">BrowserModule</text>
</g>
<!-- BrowserModule&#45;&gt;AppModule -->
<g id="edge2" class="edge">
<title>BrowserModule&#45;&gt;AppModule</title>
<path fill="none" stroke="#000000" d="M1039,-122.1289C1039,-142.5724 1039,-173 1039,-173 1039,-173 703.7835,-173 703.7835,-173"/>
<polygon fill="#000000" stroke="#000000" points="703.7835,-169.5001 693.7835,-173 703.7834,-176.5001 703.7835,-169.5001"/>
</g>
<!-- FormsModule -->
<g id="node4" class="node">
<title>FormsModule</title>
<polygon fill="#8dd3c7" stroke="#000000" points="967.8288,-122 964.8288,-126 943.8288,-126 940.8288,-122 872.1712,-122 872.1712,-86 967.8288,-86 967.8288,-122"/>
<text text-anchor="middle" x="920" y="-99.8" font-family="Times,serif" font-size="14.00" fill="#000000">FormsModule</text>
</g>
<!-- FormsModule&#45;&gt;AppModule -->
<g id="edge3" class="edge">
<title>FormsModule&#45;&gt;AppModule</title>
<path fill="none" stroke="#000000" d="M920,-122.2667C920,-140.5552 920,-166 920,-166 920,-166 703.875,-166 703.875,-166"/>
<polygon fill="#000000" stroke="#000000" points="703.875,-162.5001 693.875,-166 703.875,-169.5001 703.875,-162.5001"/>
</g>
<!-- HttpModule -->
<g id="node5" class="node">
<title>HttpModule</title>
<polygon fill="#8dd3c7" stroke="#000000" points="854.4387,-122 851.4387,-126 830.4387,-126 827.4387,-122 769.5613,-122 769.5613,-86 854.4387,-86 854.4387,-122"/>
<text text-anchor="middle" x="812" y="-99.8" font-family="Times,serif" font-size="14.00" fill="#000000">HttpModule</text>
</g>
<!-- HttpModule&#45;&gt;AppModule -->
<g id="edge4" class="edge">
<title>HttpModule&#45;&gt;AppModule</title>
<path fill="none" stroke="#000000" d="M812,-122.0091C812,-138.0494 812,-159 812,-159 812,-159 704.0381,-159 704.0381,-159"/>
<polygon fill="#000000" stroke="#000000" points="704.0382,-155.5001 694.0381,-159 704.0381,-162.5001 704.0382,-155.5001"/>
</g>
<!-- MainModule -->
<g id="node6" class="node">
<title>MainModule</title>
<polygon fill="#8dd3c7" stroke="#000000" points="751.5997,-122 748.5997,-126 727.5997,-126 724.5997,-122 662.4003,-122 662.4003,-86 751.5997,-86 751.5997,-122"/>
<text text-anchor="middle" x="707" y="-99.8" font-family="Times,serif" font-size="14.00" fill="#000000">MainModule</text>
</g>
<!-- MainModule&#45;&gt;AppModule -->
<g id="edge5" class="edge">
<title>MainModule&#45;&gt;AppModule</title>
<path fill="none" stroke="#000000" d="M678.1392,-122.1061C678.1392,-122.1061 678.1392,-140.991 678.1392,-140.991"/>
<polygon fill="#000000" stroke="#000000" points="674.6393,-140.9909 678.1392,-150.991 681.6393,-140.991 674.6393,-140.9909"/>
</g>
<!-- LoginModule -->
<g id="node7" class="node">
<title>LoginModule</title>
<polygon fill="#8dd3c7" stroke="#000000" points="644.493,-122 641.493,-126 620.493,-126 617.493,-122 551.507,-122 551.507,-86 644.493,-86 644.493,-122"/>
<text text-anchor="middle" x="598" y="-99.8" font-family="Times,serif" font-size="14.00" fill="#000000">LoginModule</text>
</g>
<!-- LoginModule&#45;&gt;AppModule -->
<g id="edge6" class="edge">
<title>LoginModule&#45;&gt;AppModule</title>
<path fill="none" stroke="#000000" d="M627.3341,-122.1061C627.3341,-122.1061 627.3341,-140.991 627.3341,-140.991"/>
<polygon fill="#000000" stroke="#000000" points="623.8342,-140.9909 627.3341,-150.991 630.8342,-140.991 623.8342,-140.9909"/>
</g>
<!-- BrowserAnimationsModule -->
<g id="node8" class="node">
<title>BrowserAnimationsModule</title>
<polygon fill="#8dd3c7" stroke="#000000" points="533.3019,-122 530.3019,-126 509.3019,-126 506.3019,-122 360.6981,-122 360.6981,-86 533.3019,-86 533.3019,-122"/>
<text text-anchor="middle" x="447" y="-99.8" font-family="Times,serif" font-size="14.00" fill="#000000">BrowserAnimationsModule</text>
</g>
<!-- BrowserAnimationsModule&#45;&gt;AppModule -->
<g id="edge7" class="edge">
<title>BrowserAnimationsModule&#45;&gt;AppModule</title>
<path fill="none" stroke="#000000" d="M447,-122.0091C447,-138.0494 447,-159 447,-159 447,-159 600.0205,-159 600.0205,-159"/>
<polygon fill="#000000" stroke="#000000" points="600.0205,-162.5001 610.0205,-159 600.0205,-155.5001 600.0205,-162.5001"/>
</g>
<!-- routing -->
<g id="node9" class="node">
<title>routing</title>
<polygon fill="#8dd3c7" stroke="#000000" points="343.4435,-122 340.4435,-126 319.4435,-126 316.4435,-122 286.5565,-122 286.5565,-86 343.4435,-86 343.4435,-122"/>
<text text-anchor="middle" x="315" y="-99.8" font-family="Times,serif" font-size="14.00" fill="#000000">routing</text>
</g>
<!-- routing&#45;&gt;AppModule -->
<g id="edge8" class="edge">
<title>routing&#45;&gt;AppModule</title>
<path fill="none" stroke="#000000" d="M315,-122.2667C315,-140.5552 315,-166 315,-166 315,-166 600.3392,-166 600.3392,-166"/>
<polygon fill="#000000" stroke="#000000" points="600.3392,-169.5001 610.3392,-166 600.3392,-162.5001 600.3392,-169.5001"/>
</g>
<!-- MomentModule -->
<g id="node10" class="node">
<title>MomentModule</title>
<polygon fill="#8dd3c7" stroke="#000000" points="268.4902,-122 265.4902,-126 244.4902,-126 241.4902,-122 161.5098,-122 161.5098,-86 268.4902,-86 268.4902,-122"/>
<text text-anchor="middle" x="215" y="-99.8" font-family="Times,serif" font-size="14.00" fill="#000000">MomentModule</text>
</g>
<!-- MomentModule&#45;&gt;AppModule -->
<g id="edge9" class="edge">
<title>MomentModule&#45;&gt;AppModule</title>
<path fill="none" stroke="#000000" d="M215,-122.1289C215,-142.5724 215,-173 215,-173 215,-173 600.0986,-173 600.0986,-173"/>
<polygon fill="#000000" stroke="#000000" points="600.0986,-176.5001 610.0986,-173 600.0986,-169.5001 600.0986,-176.5001"/>
</g>
<!-- HttpService -->
<g id="node12" class="node">
<title>HttpService</title>
<ellipse fill="#fdb462" stroke="#000000" cx="81" cy="-104" rx="57.3185" ry="18"/>
<text text-anchor="middle" x="81" y="-99.8" font-family="Times,serif" font-size="14.00" fill="#000000">HttpService</text>
</g>
<!-- HttpService&#45;&gt;AppModule -->
<g id="edge11" class="edge">
<title>HttpService&#45;&gt;AppModule</title>
<path fill="none" stroke="#000000" d="M81,-122.0109C81,-144.4852 81,-180 81,-180 81,-180 600.013,-180 600.013,-180"/>
<polygon fill="#000000" stroke="#000000" points="600.013,-183.5001 610.013,-180 600.013,-176.5001 600.013,-183.5001"/>
</g>
</g>
</svg>
